<?xml version="1.0" encoding="UTF-8" standalone="no"?>
<svg
   width="1680"
   height="840"
   version="1.1"
   id="svg5"
   sodipodi:docname="logo-sailngstanos.svg"
   inkscape:export-filename="logo-no_bg-sailngstanos.png"
   inkscape:export-xdpi="96"
   inkscape:export-ydpi="96"
   inkscape:version="1.4 (e7c3feb1, 2024-10-09)"
   xmlns:inkscape="http://www.inkscape.org/namespaces/inkscape"
   xmlns:sodipodi="http://sodipodi.sourceforge.net/DTD/sodipodi-0.dtd"
   xmlns="http://www.w3.org/2000/svg"
   xmlns:svg="http://www.w3.org/2000/svg">
  <defs
     id="defs5" />
  <sodipodi:namedview
     id="namedview5"
     pagecolor="#ffffff"
     bordercolor="#000000"
     borderopacity="0.25"
     inkscape:showpageshadow="2"
     inkscape:pageopacity="0.0"
     inkscape:pagecheckerboard="0"
     inkscape:deskcolor="#d1d1d1"
     inkscape:export-bgcolor="#ffffff00"
     inkscape:zoom="0.60468377"
     inkscape:cx="884.75998"
     inkscape:cy="497.78085"
     inkscape:window-width="1680"
     inkscape:window-height="913"
     inkscape:window-x="0"
     inkscape:window-y="25"
     inkscape:window-maximized="1"
     inkscape:current-layer="svg5" />
  <g
     id="g4"
     transform="translate(-183.47358,-578.8721)">
    <svg
       width="2048"
       height="2048"
       version="1.1"
       id="svg1" />
    <svg
       width="2048"
       height="2048"
       version="1.0"
       viewBox="0 0 2048 2048"
       id="svg2">
      <g
         fill="none"
         transform="matrix(0.1,0,0,-0.1,0,2048)"
         id="g1">
        <path
           d="M 0,10240 V 0 H 20480 V 20480 H 0 Z"
           id="path1" />
      </g>
    </svg>
    <svg
       width="2048"
       height="2048"
       version="1.0"
       viewBox="0 0 2048 2048"
       id="svg3">
      <g
         fill="#7e7e7f"
         transform="matrix(0.1,0,0,-0.1,0,2048)"
         id="g2">
        <path
           d="m 6150,13238 c 0,-798 -2,-1449 -4,-1447 -3,2 -12,49 -21,104 -32,201 -248,1262 -260,1273 -2,3 -33,-40 -67,-94 -35,-54 -135,-208 -223,-341 -88,-134 -189,-289 -225,-346 -68,-109 -204,-320 -275,-427 -23,-36 -72,-110 -107,-165 -36,-55 -105,-162 -154,-237 -49,-75 -117,-181 -151,-235 -61,-97 -162,-254 -329,-513 -48,-74 -160,-250 -249,-390 -89,-140 -224,-352 -300,-470 -76,-118 -212,-334 -303,-480 -91,-146 -178,-284 -194,-307 -15,-23 -28,-47 -28,-53 0,-9 147,-11 583,-7 643,5 692,8 953,72 282,68 496,177 732,373 262,216 451,504 573,872 21,63 40,113 41,110 1,-3 5,-306 8,-675 l 5,-670 70,3 c 81,3 645,49 1140,92 187,16 522,43 745,59 367,27 506,37 814,57 l 99,6 -7,67 c -13,127 -66,557 -87,695 -97,658 -263,1250 -490,1751 -439,971 -1061,1754 -2074,2616 -117,99 -194,159 -206,159 -5,0 -9,-653 -9,-1452 z m 684,403 c 236,-240 303,-312 431,-466 298,-357 460,-597 688,-1014 261,-478 450,-1000 566,-1561 46,-224 155,-870 148,-876 -3,-3 -269,-24 -1182,-94 -500,-38 -936,-71 -967,-74 l -58,-6 v 4452 l 91,-83 c 49,-45 177,-170 283,-278 z M 5720,12523 c 0,-10 22,-108 49,-218 87,-355 138,-650 162,-933 17,-205 7,-542 -21,-702 -65,-375 -247,-702 -520,-935 -107,-91 -190,-146 -325,-210 -187,-91 -350,-136 -608,-170 -130,-17 -787,-22 -787,-6 0,9 61,107 341,546 102,160 222,349 268,420 216,340 284,445 409,640 74,116 171,266 215,335 85,132 305,471 442,680 140,215 344,536 351,553 8,22 24,22 24,0 z m 5976,-55 c -19,-35 -68,-133 -109,-218 -254,-528 -328,-684 -403,-845 l -84,-180 102,-3 c 56,-1 104,1 108,5 4,4 40,81 80,171 l 73,162 h 528 l 64,-132 c 34,-73 70,-150 78,-170 16,-38 16,-38 111,-38 52,0 98,4 101,10 8,14 -52,149 -288,646 -219,460 -314,654 -322,654 -2,0 -20,-28 -39,-62 z m 159,-629 32,-77 -51,-6 c -28,-3 -100,-6 -159,-6 -129,0 -127,-21 -20,200 l 74,155 46,-95 c 25,-52 60,-129 78,-171 z m -1422,656 c -162,-44 -253,-154 -261,-316 -3,-62 0,-86 17,-125 52,-118 99,-157 300,-248 172,-77 221,-129 221,-237 0,-59 -18,-96 -64,-127 -89,-61 -216,-54 -351,17 -27,14 -53,27 -56,29 -10,5 -100,-158 -93,-170 11,-17 142,-74 210,-92 87,-23 226,-21 306,4 92,28 173,97 218,184 34,66 35,73 35,175 -1,89 -4,114 -24,158 -41,92 -135,164 -295,227 -172,68 -226,116 -226,202 0,57 15,83 66,115 51,31 147,31 236,-1 79,-28 79,-28 143,66 37,54 38,57 20,70 -28,21 -121,54 -195,70 -81,17 -140,17 -207,-1 z m 4197,-630 v -645 h 200 v 420 c 0,231 3,420 8,420 4,-1 30,-22 58,-48 28,-26 161,-149 295,-273 491,-455 574,-529 586,-529 10,0 13,126 13,640 v 640 h -190 l -1,-147 c 0,-82 -2,-247 -5,-368 -2,-121 -4,-242 -4,-268 v -48 l -95,81 c -52,45 -161,143 -243,218 -82,75 -211,193 -287,262 -77,69 -174,157 -217,197 -133,123 -118,193 -118,-552 z m 1925,631 c -236,-55 -424,-216 -497,-426 -19,-55 -23,-86 -23,-195 0,-117 3,-138 28,-210 72,-202 250,-372 452,-431 80,-23 238,-23 325,0 36,10 102,35 146,56 79,38 221,135 226,155 2,6 1,107 -2,225 l -5,215 -60,3 c -33,2 -142,1 -242,-3 -207,-8 -192,1 -185,-107 l 4,-58 h 288 v -103 c 0,-121 1,-120 -105,-162 -205,-82 -401,-49 -541,91 -181,180 -190,444 -19,623 97,102 195,141 356,141 113,0 187,-21 280,-81 34,-22 62,-39 63,-37 1,2 23,36 50,77 36,56 46,79 39,90 -15,25 -184,106 -260,126 -92,23 -242,28 -318,11 z m -4006,-38 c -2,-18 -3,-304 -1,-635 l 2,-603 h 190 v 1270 h -94 c -94,0 -94,0 -97,-32 z m 508,-384 c -4,-228 -4,-514 0,-635 l 6,-219 h 824 l 7,61 c 3,34 6,71 6,83 -1,50 4,50 -334,47 l -316,-2 v 1081 h -187 z m 1093,-219 v -635 h 188 l 7,65 c 4,36 5,321 2,633 l -5,567 -96,3 -96,3 z m -1089,-1143 c -28,-55 -70,-144 -94,-198 -25,-55 -72,-155 -105,-224 -275,-575 -362,-761 -362,-770 0,-16 210,-13 211,3 0,6 35,82 77,167 l 78,155 250,3 250,2 79,-170 79,-170 h 103 c 70,0 103,4 103,11 0,7 -91,203 -202,438 -111,234 -245,520 -297,635 -53,115 -101,211 -108,213 -7,3 -33,-37 -62,-95 z m 90,-409 c 17,-38 48,-107 70,-154 21,-47 39,-91 39,-97 0,-9 -43,-12 -150,-12 -82,0 -150,2 -150,4 0,3 9,20 20,38 17,29 95,200 121,266 4,12 11,22 14,22 4,0 20,-30 36,-67 z m -2741,463 c -61,-16 -109,-47 -160,-102 -81,-88 -107,-200 -72,-312 39,-122 100,-179 272,-252 213,-91 261,-135 262,-241 0,-65 -37,-130 -89,-154 -96,-46 -284,-19 -366,53 -17,15 -20,15 -38,-8 -32,-41 -89,-130 -89,-140 0,-17 159,-88 235,-105 101,-23 238,-17 317,14 89,34 161,99 200,178 30,62 33,75 33,163 0,199 -72,282 -344,396 -82,34 -126,59 -158,89 -41,40 -43,44 -43,101 1,66 8,80 64,118 49,33 134,35 216,5 94,-35 90,-36 145,36 28,36 50,70 50,77 0,17 -103,66 -177,83 -79,18 -195,19 -258,1 z m 5435,4 c -237,-51 -431,-231 -501,-466 -25,-84 -22,-236 6,-329 38,-121 87,-203 175,-291 67,-68 96,-89 175,-127 114,-54 173,-68 302,-68 78,0 112,5 175,26 152,51 278,145 361,269 235,352 69,820 -344,967 -66,24 -276,35 -349,19 z m 319,-216 c 87,-34 189,-127 234,-211 92,-175 58,-388 -83,-526 -142,-139 -354,-175 -532,-91 -124,59 -231,206 -255,348 -36,218 87,412 317,497 76,29 227,21 319,-17 z m 953,212 c -60,-17 -147,-76 -181,-124 -47,-69 -60,-112 -60,-202 -1,-71 4,-94 25,-140 34,-72 88,-123 174,-165 39,-18 118,-56 177,-84 95,-45 110,-56 133,-95 33,-56 41,-103 25,-152 -29,-91 -104,-130 -231,-121 -76,5 -117,20 -240,85 -7,3 -97,-140 -102,-160 -3,-13 90,-61 173,-90 55,-20 85,-23 200,-23 127,0 139,2 194,28 95,44 141,88 183,175 34,71 37,84 36,162 -1,112 -27,184 -92,248 -47,47 -111,83 -275,153 -101,44 -150,77 -171,119 -43,82 11,177 111,198 67,14 174,-6 245,-45 11,-6 111,138 105,152 -8,21 -106,63 -184,80 -88,18 -179,18 -245,1 z m -3187,-626 v -630 h 200 l 2,412 3,412 85,-76 c 47,-42 216,-192 375,-333 160,-142 331,-295 381,-341 50,-46 96,-84 103,-84 8,0 11,167 11,630 v 630 h -200 v -405 c 0,-223 -3,-405 -6,-405 -8,0 -94,71 -169,139 -44,40 -159,142 -654,580 -63,55 -119,101 -123,101 -4,0 -8,-283 -8,-630 z m -2690,531 v -89 l 165,-7 c 91,-4 180,-5 198,-3 18,3 38,3 45,1 9,-4 12,-119 12,-533 v -528 l 53,-4 c 28,-1 71,-2 94,0 l 43,3 2,532 3,532 208,3 207,2 v 180 H 11240 Z M 8510,9223 c -185,-12 -933,-72 -1355,-108 -510,-44 -894,-74 -1135,-90 -445,-30 -1226,-85 -1615,-115 -588,-45 -958,-69 -1154,-76 -209,-7 -215,-8 -181,-35 643,-517 1379,-828 2185,-924 185,-22 679,-31 857,-16 288,26 513,64 738,127 438,122 818,292 1210,539 112,71 200,132 519,358 l 94,67 -2,98 c -1,53 -4,116 -7,140 -6,42 -6,42 -58,40 -28,-1 -71,-3 -96,-5 z m -995,-451 c -186,-160 -491,-332 -730,-411 -223,-73 -402,-101 -649,-101 -380,0 -701,76 -1036,246 -192,97 -197,89 61,103 307,16 2232,155 2284,165 40,7 79,6 70,-2 z m 10040,-89 c -109,-8 -387,-45 -505,-69 -170,-34 -348,-81 -628,-169 -437,-135 -586,-174 -860,-219 -642,-107 -1267,-111 -1882,-11 -162,27 -477,94 -679,145 -178,45 -592,135 -801,174 -755,142 -1355,159 -2050,60 -416,-59 -911,-181 -1285,-316 -225,-82 -627,-257 -765,-333 -35,-20 -35,-20 -8,-23 15,-2 103,17 195,42 655,175 1114,271 1578,331 403,51 923,73 1327,57 577,-24 974,-70 1903,-222 1020,-166 1201,-184 1880,-185 515,0 585,4 914,51 206,29 418,77 746,169 500,139 759,191 1085,215 281,21 524,8 763,-40 78,-16 144,-26 147,-24 3,3 5,62 5,132 v 126 l -58,18 c -105,32 -292,67 -440,83 -132,14 -437,18 -582,8 z M 1837,7808 c 2,-387 3,-717 3,-734 0,-32 1,-33 194,-118 242,-107 436,-180 647,-246 665,-206 1239,-290 1987,-290 682,0 1294,84 1942,266 268,76 512,160 995,344 890,338 1346,458 2045,537 197,22 923,25 1120,5 747,-77 1279,-222 2168,-588 760,-314 1104,-431 1582,-538 280,-63 554,-105 920,-142 220,-23 962,-26 1190,-6 721,64 1262,193 1832,436 l 173,73 3,579 c 1,319 0,590 -3,602 -4,15 -11,22 -19,19 -8,-3 -79,-56 -157,-118 -269,-211 -481,-352 -772,-514 -491,-272 -1091,-465 -1652,-530 -194,-23 -621,-31 -826,-16 -385,29 -755,97 -1169,216 -341,99 -567,184 -1175,445 -468,201 -599,253 -865,341 -401,132 -709,202 -1115,253 -406,51 -951,44 -1410,-19 -511,-70 -929,-173 -1550,-380 -522,-175 -661,-218 -900,-280 -516,-133 -883,-183 -1400,-192 -332,-6 -489,1 -775,33 -636,70 -1283,266 -1925,584 -355,175 -599,324 -892,542 -94,70 -177,130 -185,133 -11,4 -13,-112 -11,-697 z"
           id="path2" />
      </g>
    </svg>
    <svg
       width="2048"
       height="2048"
       version="1.0"
       viewBox="0 0 2048 2048"
       id="svg4">
      <g
         fill="#030303"
         transform="matrix(0.1,0,0,-0.1,0,2048)"
         id="g3">
        <path
           d="m 6160,13189 c 0,-821 -2,-1490 -4,-1488 -3,3 -19,85 -35,184 -40,232 -233,1196 -255,1270 -2,6 -38,-44 -81,-110 -42,-66 -134,-205 -202,-310 -69,-104 -241,-370 -382,-590 -142,-220 -291,-452 -332,-515 -42,-63 -139,-214 -216,-335 -77,-121 -174,-272 -215,-335 -111,-171 -268,-414 -325,-505 -49,-78 -279,-440 -433,-680 -165,-258 -400,-634 -407,-652 -4,-10 109,-13 546,-13 490,0 567,2 703,20 346,45 591,132 839,299 359,241 610,586 743,1023 15,48 31,90 35,92 10,7 21,-482 21,-966 v -388 h 38 c 38,0 605,47 1207,100 371,32 721,59 1257,94 192,12 350,25 352,27 8,7 -82,705 -118,918 -94,554 -228,1038 -401,1446 -91,213 -289,603 -404,795 -383,637 -889,1223 -1571,1819 -171,151 -332,283 -350,289 -6,2 -10,-549 -10,-1489 z m 541,593 c 603,-590 933,-1015 1268,-1638 240,-447 421,-936 535,-1449 50,-221 166,-893 166,-960 0,-20 -9,-22 -177,-33 -98,-7 -227,-17 -288,-22 -60,-6 -202,-17 -315,-25 -196,-15 -432,-33 -715,-55 -71,-5 -195,-14 -275,-20 -80,-6 -192,-15 -249,-21 -58,-5 -126,-9 -153,-9 h -49 l 3,2230 c 2,1226 6,2230 9,2230 3,0 111,-103 240,-228 z m -976,-1264 c 4,-18 29,-123 55,-233 172,-710 211,-1238 125,-1671 -121,-602 -553,-1058 -1146,-1208 -105,-27 -235,-50 -374,-66 -100,-11 -492,-14 -634,-3 l -91,6 31,56 c 18,31 93,151 167,266 149,232 171,266 344,540 128,202 249,392 466,730 74,116 176,273 225,350 102,159 304,470 445,685 118,179 295,457 336,528 16,28 33,52 37,52 4,0 10,-15 14,-32 z m 5977,-50 c -51,-89 -592,-1225 -592,-1242 0,-1 44,-1 98,0 l 97,2 77,169 77,168 264,3 c 204,2 267,-1 274,-10 6,-7 42,-83 81,-168 l 72,-155 95,-3 c 62,-2 95,1 95,8 0,19 -48,126 -192,430 -78,162 -178,374 -223,470 -98,208 -184,380 -189,380 -3,0 -18,-24 -34,-52 z m 82,-459 c 69,-145 107,-240 100,-250 -3,-5 -77,-9 -165,-9 h -159 l 15,38 c 29,71 150,321 156,322 3,0 27,-45 53,-101 z m -1362,476 c -74,-21 -108,-41 -158,-91 -86,-89 -113,-243 -62,-356 39,-85 94,-133 217,-190 170,-78 194,-91 230,-123 86,-75 95,-203 19,-271 -86,-79 -216,-81 -369,-4 -33,17 -62,30 -63,28 -25,-36 -86,-140 -86,-147 0,-15 82,-59 161,-85 294,-98 558,26 600,283 10,67 0,156 -27,221 -33,79 -146,165 -291,220 -164,63 -233,123 -233,204 0,125 158,185 315,121 59,-24 59,-24 82,-3 13,12 37,44 55,70 29,47 30,49 12,62 -10,8 -52,26 -94,41 -94,34 -228,43 -308,20 z m 4215,9 c -7,-7 3,-1257 10,-1264 6,-6 162,-5 167,1 2,2 6,190 9,418 4,227 8,416 11,418 2,3 123,-105 267,-239 144,-133 290,-268 323,-298 34,-30 121,-110 195,-178 74,-67 143,-128 154,-134 19,-10 20,-8 14,28 -4,22 -7,308 -7,637 v 597 h -180 v -410 c 0,-295 -3,-410 -11,-410 -12,0 -157,126 -379,330 -75,69 -197,179 -270,245 -74,66 -164,147 -200,180 -81,75 -95,86 -103,79 z m 1938,0 c -133,-32 -206,-64 -292,-127 -104,-77 -198,-213 -229,-332 -86,-322 109,-675 435,-787 55,-19 87,-23 191,-22 110,0 134,3 205,28 95,32 166,70 258,138 l 67,50 -2,217 -3,216 h -480 l -3,-72 c -3,-64 -1,-73 15,-75 10,-1 77,-2 148,-2 l 130,-1 -1,-35 c -1,-19 -2,-70 -3,-113 -1,-76 -2,-78 -33,-97 -69,-42 -183,-70 -287,-70 -121,0 -175,16 -262,75 -76,52 -135,122 -176,210 -26,55 -28,70 -28,175 0,108 2,119 32,182 53,112 140,193 258,238 51,20 79,24 180,24 135,0 184,-13 283,-79 30,-19 57,-35 60,-35 4,1 27,33 50,73 31,51 41,76 35,86 -15,24 -123,79 -208,107 -64,21 -104,27 -200,30 -66,1 -129,1 -140,-2 z m -4025,-598 c 0,-321 3,-604 6,-630 l 7,-47 81,3 81,3 3,628 2,627 h -180 z m 510,-40 c 0,-560 2,-624 16,-630 21,-8 559,-8 702,1 l 112,6 v 177 h -650 v 1070 h -180 z m 1095,202 c -3,-233 -5,-515 -3,-628 l 3,-205 70,-3 c 38,-2 80,0 92,3 23,5 23,5 23,630 v 625 h -178 z m -1126,-1424 c -43,-91 -79,-167 -79,-169 0,-2 -50,-109 -111,-237 -61,-128 -160,-336 -220,-461 -60,-126 -109,-235 -109,-243 0,-11 19,-14 93,-14 h 94 l 81,169 c 45,94 89,171 98,175 9,4 123,4 253,1 l 236,-5 45,-87 c 25,-49 63,-125 84,-170 l 38,-83 h 94 c 75,0 94,3 94,14 0,15 -76,180 -265,576 -64,135 -150,318 -191,407 -119,263 -134,293 -145,293 -6,0 -46,-75 -90,-166 z m 170,-420 c 40,-91 70,-168 67,-171 -9,-9 -260,-17 -290,-9 -26,6 -26,6 23,104 26,53 54,113 61,132 7,19 17,39 22,45 4,5 8,16 8,25 0,16 18,40 30,40 3,0 39,-75 79,-166 z m -2741,555 c -111,-16 -210,-88 -259,-187 -20,-38 -24,-63 -24,-133 0,-79 3,-92 35,-155 45,-87 98,-128 245,-190 176,-74 220,-105 250,-176 44,-106 -14,-215 -130,-248 -70,-19 -183,-2 -267,42 -35,18 -66,34 -69,36 -8,3 -99,-131 -99,-145 0,-5 33,-26 73,-46 173,-86 349,-96 501,-28 68,30 132,95 167,168 28,58 31,76 31,152 0,196 -78,282 -364,400 -92,39 -152,80 -173,120 -18,35 -20,100 -4,134 14,30 82,75 128,83 44,9 136,-8 191,-35 24,-12 45,-20 46,-18 22,23 104,132 104,139 0,17 -126,68 -204,83 -85,16 -94,17 -178,4 z m 5442,2 c -266,-30 -505,-244 -559,-499 -57,-273 97,-580 353,-706 167,-82 328,-96 491,-41 109,36 187,86 271,170 114,117 170,241 181,401 12,186 -53,353 -191,489 -149,148 -331,210 -546,186 z m 185,-186 c 67,-12 162,-63 224,-120 235,-218 177,-598 -113,-740 -317,-154 -679,69 -677,419 1,101 20,167 72,245 106,159 290,232 494,196 z m 1003,161 c -67,-28 -112,-63 -154,-122 -43,-60 -58,-119 -52,-207 9,-126 73,-218 193,-277 34,-16 65,-30 69,-30 3,0 48,-21 99,-46 139,-69 177,-112 177,-204 0,-28 -6,-65 -14,-83 -47,-115 -233,-139 -399,-53 -37,20 -70,36 -72,36 -4,0 -95,-148 -95,-155 0,-10 118,-64 181,-83 245,-76 473,-4 561,176 30,62 33,75 33,162 0,81 -4,103 -27,151 -49,106 -75,124 -390,273 -98,46 -133,88 -133,157 0,59 25,96 85,127 71,36 167,28 281,-22 12,-5 28,9 63,58 25,35 46,69 46,75 0,6 -22,22 -50,36 -116,59 -300,73 -402,31 z m -5844,0 c -3,-7 -4,-46 -2,-87 l 3,-74 205,-3 c 148,-2 206,-6 212,-15 4,-6 8,-247 8,-535 v -523 l 88,3 87,3 -4,450 c -2,248 0,487 4,532 l 7,83 207,2 206,3 3,87 3,86 h -511 c -398,0 -512,-3 -516,-12 z m 2694,-598 c 1,-337 4,-619 7,-625 3,-9 27,-12 87,-8 46,3 87,5 91,5 4,0 7,183 6,406 0,223 1,407 3,410 3,2 36,-24 75,-59 38,-34 184,-163 323,-287 140,-124 317,-282 394,-352 78,-71 144,-128 147,-128 13,0 14,63 11,648 l -4,592 h -178 v -399 c 0,-236 -4,-402 -9,-406 -11,-6 -85,55 -317,261 -492,437 -625,554 -632,554 -4,0 -6,-276 -4,-612 z M 8385,9209 c -55,-4 -163,-12 -240,-18 -247,-18 -885,-72 -1090,-91 -55,-5 -163,-14 -240,-20 -77,-6 -189,-15 -250,-20 -226,-19 -365,-30 -525,-40 -91,-6 -228,-15 -305,-20 -598,-41 -692,-47 -925,-65 -107,-8 -258,-19 -335,-25 -77,-6 -194,-15 -260,-20 -241,-20 -747,-53 -1007,-65 -76,-4 -138,-9 -138,-11 0,-12 184,-155 313,-243 98,-67 316,-194 449,-262 629,-319 1340,-477 2053,-456 645,20 1188,158 1778,453 245,123 456,256 787,494 85,61 169,120 187,131 32,20 32,20 27,142 -3,67 -7,128 -10,135 -4,14 -100,14 -269,1 z m -845,-423 c 0,-7 -188,-146 -270,-199 -357,-231 -784,-350 -1200,-333 -373,15 -648,85 -974,250 -197,99 -199,103 -61,105 136,2 870,53 1985,136 256,20 472,37 480,39 22,5 40,7 40,2 z m 10088,-107 c -404,-23 -692,-80 -1188,-234 -476,-149 -695,-201 -1035,-249 -312,-44 -429,-51 -830,-51 -578,0 -844,34 -1530,199 -405,97 -772,175 -1010,215 -896,150 -1680,116 -2580,-111 -353,-89 -617,-177 -943,-317 -192,-82 -422,-192 -422,-202 0,-8 77,9 230,50 258,71 779,194 1000,235 589,111 1083,152 1710,143 638,-9 1031,-52 2095,-226 864,-141 1177,-175 1725,-187 671,-15 1149,44 1749,217 400,114 767,192 1035,218 60,6 212,11 337,11 239,0 389,-14 545,-50 47,-11 91,-20 100,-20 12,0 14,20 12,127 l -3,127 -45,13 c -91,27 -338,72 -450,82 -175,16 -351,19 -502,10 z m -15786,-906 3,-727 115,-53 c 158,-72 489,-202 640,-251 494,-162 940,-251 1496,-298 277,-24 866,-24 1129,-1 555,50 945,122 1448,268 280,81 466,147 1042,367 1019,390 1791,540 2665,519 510,-13 965,-79 1445,-211 356,-98 607,-188 1196,-430 381,-156 623,-249 814,-314 926,-315 1996,-427 3010,-316 644,70 1102,193 1748,468 l 37,16 v 595 c 0,452 -3,595 -12,595 -6,0 -32,-17 -57,-38 -97,-81 -341,-263 -456,-339 -492,-328 -948,-534 -1495,-676 -942,-244 -1951,-158 -3090,265 -74,28 -335,136 -580,241 -245,104 -503,213 -575,242 -162,65 -548,193 -720,239 -265,71 -615,133 -909,161 -293,28 -870,16 -1176,-24 -576,-76 -984,-174 -1645,-396 -711,-238 -928,-299 -1335,-376 -381,-71 -627,-93 -1060,-93 -360,0 -532,11 -835,55 -932,135 -1910,546 -2681,1125 -83,63 -154,114 -158,114 -3,0 -5,-327 -4,-727 z"
           id="path3" />
      </g>
    </svg>
  </g>
  <path
     style="fill:#ffffff;stroke-width:1.06231"
     d="m 145.36735,555.64905 c 1.36894,-3.5674 59.24916,-94.8508 120.94557,-190.74429 85.75265,-133.28364 131.17187,-203.38031 134.7327,-207.9365 l 1.85911,-2.37881 0.52746,2.37881 c 3.06255,13.81181 19.67686,97.17996 23.1267,116.04636 2.45728,13.43827 4.88766,24.88736 5.40085,25.44242 0.53638,0.58013 0.99141,-55.42506 1.07024,-131.7269 0.0754,-73.004858 0.43397,-139.877071 0.79673,-148.604923 l 0.6596,-15.8688213 13.27892,11.0580283 c 43.31022,36.066607 87.91315,80.059931 119.04898,117.421896 20.30831,24.36929 41.47814,54.01263 57.2669,80.1887 11.5248,19.1069 36.46037,68.87064 44.41938,88.64744 21.68565,53.88522 34.97564,111.51134 45.32416,196.52804 1.4935,12.26972 2.9767,24.30732 3.29597,26.75022 l 0.58052,4.44163 -4.56895,0.61273 c -2.51293,0.33701 -25.84178,2.05559 -51.84191,3.81905 -48.55101,3.29299 -70.05243,4.9943 -167.31441,13.23872 -30.96644,2.62488 -57.31145,4.77521 -58.54447,4.7785 l -2.24184,0.006 -0.5119,-65.65825 c -0.34714,-44.52556 -0.88477,-66.32265 -1.67039,-67.7225 -0.94589,-1.68541 -1.26069,-1.77181 -1.71535,-0.47077 -12.71294,36.37899 -20.25356,51.50475 -35.31994,70.84841 -25.56896,32.82785 -61.31746,55.57424 -101.30455,64.45899 -24.4709,5.4372 -32.87959,5.98032 -92.58936,5.98032 -47.77413,0 -55.21943,-0.20882 -54.71072,-1.53449 z M 243.801,535.96872 c 53.02369,-2.76085 90.98806,-17.76692 121.08023,-47.8591 21.90068,-21.90068 36.06815,-48.56274 42.48271,-79.94907 6.73423,-32.95052 5.40858,-78.38362 -3.72631,-127.70973 -3.68835,-19.91617 -14.13434,-64.52959 -15.40731,-65.80256 -1.34344,-1.34344 -1.14072,-1.61295 -12.73881,16.93613 -5.47987,8.76409 -23.16313,36.25145 -39.29613,61.08304 -42.18527,64.93072 -135.47736,210.78328 -148.39246,231.99633 -3.16158,5.19287 -5.35483,9.83509 -4.8739,10.31602 0.8358,0.8358 10.21535,1.35039 32.18951,1.76602 5.55058,0.10499 18.4577,-0.2447 28.68247,-0.77708 z m 328.78609,-29.2459 c 57.25871,-4.38432 105.66037,-8.23105 107.55926,-8.5483 3.21761,-0.53757 3.45252,-0.86339 3.45252,-4.78855 0,-4.68242 -7.61035,-50.63217 -12.7462,-76.959 C 660.38134,362.75009 644.21513,315.02637 620.45426,267.64761 596.02445,218.93495 571.25543,182.09633 534.68022,140.07704 519.62419,122.77998 463.72669,66.981704 462.63896,68.163663 462.19014,68.651364 461.5872,169.31953 461.29911,291.87069 l -0.5238,222.8203 3.85251,0.002 c 2.11889,9.1e-4 50.70056,-3.58551 107.95927,-7.96983 z"
     id="path12" />
  <path
     style="fill:#ffffff;stroke-width:1.06231"
     d="m 850.91328,344.89161 c -6.73389,-2.02279 -16.95787,-6.88712 -17.99183,-8.5601 -0.67948,-1.09942 6.60091,-13.9193 7.90474,-13.9193 0.45038,0 4.09106,1.53124 8.09039,3.40275 6.0104,2.8126 8.84073,3.46729 16.31955,3.77489 8.46643,0.34823 9.39678,0.16783 14.47314,-2.80624 6.33073,-3.70896 8.91614,-8.19277 8.91614,-15.46298 0,-6.05417 -3.0407,-12.3172 -7.69196,-15.84339 -1.90428,-1.44366 -9.98091,-5.8139 -17.94806,-9.71164 -21.95777,-10.74233 -27.9415,-17.90415 -27.96621,-33.47222 -0.0105,-6.59174 0.50239,-9.0262 2.95948,-14.0483 7.9628,-16.27538 27.86496,-22.29243 50.29667,-15.20625 10.74881,3.39554 11.93176,4.6192 9.02007,9.33042 -1.18993,1.92535 -3.397,4.65943 -4.90459,6.07574 -2.7326,2.56715 -2.75672,2.56948 -7.79879,0.75638 -11.90761,-4.28192 -22.39059,-3.18289 -28.56858,2.9951 -2.97227,2.97227 -3.51669,4.28136 -3.51669,8.45609 0,2.71667 0.71768,6.32724 1.59485,8.0235 1.99721,3.86217 9.33469,8.96818 17.87349,12.43781 16.1971,6.58147 26.79803,13.74545 30.97058,20.92956 3.12789,5.38544 5.20369,16.4857 4.28054,22.88999 -1.73133,12.01095 -9.39279,22.42446 -20.53317,27.90886 -6.4004,3.1509 -7.9966,3.47598 -18.21059,3.7088 -8.31617,0.18955 -12.83448,-0.23723 -17.56917,-1.65947 z"
     id="path13" />
  <path
     style="fill:#ffffff;stroke-width:0.694337"
     d="m 929.66264,342.50115 c 10.71875,-24.21889 56.83578,-119.93057 59.58347,-123.66005 0.83469,-1.13294 1.60407,0.0889 7.43244,11.80373 6.52975,13.12444 26.92135,55.89343 41.15605,86.32004 7.0084,14.98026 12.3502,27.12629 12.3502,28.08134 0,0.21257 -4.14,0.38105 -9.2,0.37442 l -9.1999,-0.0121 -7.5352,-16.24245 c -5.8249,-12.55612 -7.8735,-16.33325 -9.0263,-16.64255 -0.8202,-0.22006 -13.0828,-0.40437 -27.25022,-0.40958 l -25.75893,-0.009 -7.68403,16.83767 -7.68402,16.83767 -9.40273,0.19299 -9.40273,0.19298 z m 66.53745,-48.21221 c 10.43211,-0.53205 10.21071,-0.23319 6.72121,-9.07192 -2.99908,-7.59642 -12.56034,-27.2708 -13.25294,-27.2708 -1.08988,0 -17.24931,33.71862 -17.24931,35.99278 0,0.92962 9.63516,1.0714 23.78104,0.34994 z"
     id="path14" />
  <path
     style="fill:#ffffff;stroke-width:0.694337"
     d="m 1072.8094,345.00659 c -0.2676,-1.10224 -0.6642,-29.42172 -0.8813,-62.93216 l -0.3948,-60.92808 h 8.7985 8.7984 l -0.2048,62.08565 c -0.1127,34.1471 -0.4198,62.30041 -0.6825,62.56292 -0.2627,0.26251 -3.7332,0.64344 -7.7123,0.84652 l -7.2346,0.36925 z"
     id="path15" />
  <path
     style="fill:#ffffff;stroke-width:0.694337"
     d="m 1126.1304,346.37596 c -1.9828,-0.29605 -2.2045,-0.59478 -2.6038,-3.5077 -0.24,-1.75125 -0.4364,-29.8551 -0.4364,-62.453 v -59.26891 h 8.6792 8.6792 v 53.81113 53.81112 h 32.2867 32.2867 v 8.25911 8.25912 l -2.951,0.39635 c -3.7136,0.4988 -73.0062,1.13094 -75.9406,0.69278 z"
     id="path16" />
  <path
     style="fill:#ffffff;stroke-width:0.694337"
     d="m 1234.3577,346.35111 -2.2566,-0.31207 10e-4,-34.84645 c 5e-4,-19.16554 0.2075,-47.26639 0.46,-62.44634 l 0.4591,-27.5999 h 8.5945 8.5945 l -0.2017,61.76161 c -0.1618,49.52856 -0.3805,61.94032 -1.1041,62.66392 -0.9178,0.91773 -10.0196,1.40529 -14.5467,0.77923 z"
     id="path17" />
  <path
     style="fill:#ffffff;stroke-width:0.694337"
     d="m 1390.6631,344.18507 c -4.9063,-4.10023 -22.2812,-19.91953 -51.2869,-46.6951 -24.6018,-22.7102 -38.6752,-35.37773 -39.3041,-35.37773 -0.6525,0 -1.2581,17.88146 -1.6814,49.6451 -0.2086,15.6573 -0.543,29.79574 -0.7431,31.41875 l -0.3639,2.95093 h -7.9423 c -4.3683,0 -7.9606,-0.0781 -7.983,-0.17358 -0.3027,-1.29267 -0.9541,-116.34683 -0.6824,-120.53494 l 0.3759,-5.79574 22.5659,20.32738 c 12.4113,11.18005 27.7214,25.03722 34.0225,30.7937 23.6635,21.61811 35.9988,32.32557 37.2464,32.3309 0.4365,0.002 0.9833,-0.49084 1.2151,-1.09491 0.2318,-0.60406 0.4214,-19.03871 0.4214,-40.96588 v -39.8676 h 8.6792 8.6792 l 0.081,35.93195 c 0.044,19.76256 0.2839,48.11755 0.5319,63.01108 0.2479,14.89353 0.4035,27.17354 0.3456,27.28892 -0.058,0.11538 -1.9375,-1.32158 -4.1771,-3.19323 z"
     id="path18" />
  <path
     style="fill:#ffffff;stroke-width:0.694337"
     d="m 1468.44,344.78713 c -5.2645,-1.41501 -13.1846,-5.12771 -18.3171,-8.58644 -13.1802,-8.88209 -23.7181,-23.75513 -27.8957,-39.3716 -2.2508,-8.41373 -2.2632,-22.95104 -0.026,-30.75856 2.7323,-9.53613 7.9338,-18.40682 15.5961,-26.59782 7.8786,-8.42224 18.048,-14.31439 31.0729,-18.00368 6.2958,-1.78326 7.118,-1.85127 18.0528,-1.49312 12.5338,0.41051 18.0955,1.49674 27.3145,5.33461 7.1153,2.96212 13.9548,7.18937 14.1981,8.77541 0.2197,1.4317 -6.6437,13.4291 -7.9752,13.94088 -0.4577,0.17595 -3.7385,-1.44057 -7.2905,-3.59227 -3.5521,-2.15169 -8.4892,-4.50141 -10.9715,-5.22159 -9.8383,-2.85441 -27.1773,-2.34222 -35.4112,1.04603 -10.807,4.44712 -18.4884,11.51481 -24.1281,22.20043 l -3.2982,6.24903 v 13.53957 13.53958 l 2.3385,4.51319 c 5.0606,9.76684 10.7546,16.24493 18.9142,21.51874 6.0041,3.88061 11.0586,5.57324 18.5239,6.20312 11.9736,1.01026 23.362,-0.81393 32.5787,-5.21845 6.1785,-2.9526 6.4426,-3.65331 6.4481,-17.10821 v -9.53305 l -14.4075,-0.18767 -14.4075,-0.18767 -0.1987,-6.76979 -0.1988,-6.76979 h 23.9798 23.9798 v 21.39821 21.3982 l -7.2602,5.16019 c -8.6385,6.13988 -16.2145,10.15866 -24.8975,13.20713 -6.1261,2.15081 -6.8717,2.24845 -18.8761,2.47166 -10.6237,0.19755 -13.2394,0.0331 -17.4413,-1.09627 z"
     id="path19" />
  <path
     style="fill:#ffffff;stroke-width:0.694337"
     d="m 1405.8977,518.72777 c -14.883,-2.84246 -27.3144,-9.4156 -37.0598,-19.59559 -18.7718,-19.60875 -24.1006,-47.16881 -13.462,-69.62308 3.3558,-7.08292 7.4981,-12.671 13.9431,-18.80996 8.8141,-8.39562 17.6352,-13.4815 29.1487,-16.80607 4.7604,-1.37456 6.9896,-1.57669 16.9384,-1.53579 10.37,0.0426 12.0353,0.22371 17.5586,1.90922 22.932,6.99803 41.0748,26.35092 45.7308,48.78111 2.5336,12.20592 0.8559,27.38949 -4.2267,38.25131 -8.0757,17.25844 -25.2213,31.3591 -44.1345,36.29656 -7.2007,1.87982 -17.9214,2.37658 -24.4366,1.13229 z m 24.8656,-19.6099 c 14.9864,-5.237 26.7154,-17.90722 30.1872,-32.6097 1.458,-6.17441 1.4679,-16.03 0.022,-21.78528 -3.8832,-15.45571 -17.1504,-28.86103 -33.4153,-33.76332 -5.662,-1.70652 -19.0375,-1.72283 -25.3213,-0.0309 -15.0613,4.05533 -27.4248,15.62476 -32.4037,30.3225 -1.0259,3.02835 -1.2878,5.83106 -1.2654,13.53957 0.025,8.79895 0.2114,10.24682 1.9605,15.26875 4.7185,13.54758 14.4494,23.70427 27.3841,28.58236 6.8779,2.59387 9.3589,2.96263 18.5364,2.75524 7.1817,-0.16229 9.1582,-0.47698 14.3157,-2.27925 z"
     id="path20" />
  <path
     style="fill:#ffffff;stroke-width:0.694337"
     d="m 1529.0782,519.00079 c -7.4035,-1.16935 -21.8564,-6.26129 -26.6866,-9.40201 l -1.5424,-1.00295 1.9475,-3.29507 c 1.0711,-1.81228 3.1463,-5.20942 4.6115,-7.54919 l 2.6641,-4.25412 6.9988,3.39389 c 12.3176,5.97314 23.1946,6.89547 32.1219,2.72382 4.8053,-2.24549 8.1713,-6.10938 9.0278,-10.36309 0.9428,-4.68286 0.5237,-10.69876 -0.981,-14.07966 -2.5129,-5.64649 -5.4845,-7.51657 -32.3321,-20.34682 -14.0687,-6.72335 -20.5931,-17.49131 -19.7963,-32.6721 0.2332,-4.44391 0.7513,-6.59018 2.4853,-10.29566 4.1582,-8.88586 13.6125,-16.48877 22.9299,-18.43978 11.0982,-2.32388 28.3605,0.44363 37.1277,5.95236 3.0249,1.90069 3.0283,1.88551 -1.9538,8.93627 -4.5125,6.38632 -4.1853,6.26571 -10.8609,4.00329 -4.8841,-1.65531 -6.8968,-1.95677 -13.0642,-1.95677 -6.788,0 -7.5475,0.14236 -11.0193,2.06522 -5.5166,3.05546 -7.2862,5.74698 -7.616,11.58381 -0.5301,9.38111 1.3843,11.20371 23.1749,22.06301 18.0018,8.97121 22.3861,11.84602 25.791,16.91157 4.3383,6.45406 5.3501,10.26067 5.391,20.28178 0.037,9.02351 0.036,9.02811 -2.5557,14.45588 -4.8566,10.17102 -14.5154,17.88018 -25.748,20.55067 -4.6505,1.10562 -15.3056,1.4953 -20.1151,0.73565 z"
     id="path21" />
  <path
     style="fill:#ffffff;stroke-width:0.694337"
     d="m 1212.0018,516.99851 c -0.8606,-0.56787 -1.048,-9.36115 -1.304,-61.1684 -0.1692,-34.26398 -0.034,-60.76563 0.3108,-61.10569 0.6993,-0.68888 3.4471,1.66303 47.2654,40.45499 43.5887,38.58864 46.6946,41.14656 47.7964,39.36375 0.2466,-0.399 0.6253,-18.52005 0.8415,-40.269 l 0.3932,-39.54354 h 8.115 8.1149 l 0.4544,11.97731 c 0.5973,15.74731 0.4988,108.1421 -0.1169,109.69621 -0.3927,0.99103 -1.9713,-0.12308 -8.8544,-6.24903 -4.607,-4.10029 -23.8201,-21.20429 -42.6958,-38.00888 -39.1058,-34.81508 -41.7635,-37.14406 -42.3866,-37.14406 -0.2494,0 -0.5712,18.25633 -0.7151,40.56964 -0.1439,22.3133 -0.4138,40.70911 -0.6,40.87959 -0.7496,0.6866 -15.6634,1.17758 -16.6188,0.54711 z"
     id="path22" />
  <path
     style="fill:#ffffff;stroke-width:0.694337"
     d="m 1068.5238,516.67828 c -0.4666,-1.21581 2.0758,-6.83057 23.1493,-51.12528 9.5385,-20.04899 19.4198,-40.98325 21.9585,-46.52059 6.2886,-13.71673 13.895,-28.67368 14.7224,-28.94946 0.818,-0.27267 2.7468,3.5708 13.8308,27.56079 4.6757,10.11996 15.3075,32.77271 23.6261,50.33944 17.3323,36.60118 22.6025,48.29926 22.1149,49.08816 -0.1893,0.30632 -4.3095,0.54672 -9.156,0.53422 l -8.8119,-0.0227 -8.2801,-16.98854 -8.2801,-16.98854 h -8.4453 c -4.645,0 -15.5108,-0.20562 -24.1462,-0.45694 l -15.7009,-0.45693 -2.1404,2.29133 c -1.1772,1.26023 -5.4887,9.11971 -9.5811,17.46549 l -7.4406,15.17416 -8.5275,0.003 c -6.5762,0.002 -8.6108,-0.21467 -8.8919,-0.9473 z m 69.3899,-50.88 c 4.0401,-0.34151 5.3123,-0.69659 5.3123,-1.48269 0,-1.41747 -4.4749,-12.43965 -9.7288,-23.96311 -4.5636,-10.00956 -5.6178,-11.07124 -7.3757,-7.42841 -1.0596,2.19565 -11.0429,24.23894 -12.9864,28.67411 -1.2615,2.87882 -1.3218,3.42421 -0.4401,3.9818 1.1749,0.74299 17.3547,0.88305 25.2187,0.2183 z"
     id="path23" />
  <path
     style="fill:#ffffff;stroke-width:0.694337"
     d="m 983.52844,465.68571 c 0,-43.098 -0.16335,-52.16597 -0.95934,-53.25455 -0.88761,-1.21388 -2.45797,-1.34718 -21.00369,-1.78287 -11.0244,-0.259 -20.12247,-0.50946 -20.21794,-0.55658 -0.0955,-0.0471 -0.17359,-3.4862 -0.17359,-7.6424 0,-7.24877 0.0637,-7.57392 1.56226,-7.97843 0.85924,-0.23194 23.87502,-0.63265 51.14616,-0.89048 l 49.5839,-0.46876 -0.4392,8.1954 c -0.2416,4.50747 -0.6301,8.38682 -0.8635,8.62078 -0.2334,0.23396 -9.4497,0.52487 -20.4808,0.64647 l -20.0564,0.22108 -0.5433,2.55626 c -0.2988,1.40595 -0.5433,25.44338 -0.5433,53.41651 v 50.86025 l -8.50563,-6e-5 -8.50563,-5e-5 z"
     id="path24" />
  <path
     style="fill:#ffffff;stroke-width:0.694337"
     d="m 855.81812,518.26126 c -7.07683,-1.38819 -22.44392,-7.71046 -24.36367,-10.02361 -0.46909,-0.56523 0.51486,-2.60914 3.20067,-6.64855 5.68671,-8.55274 4.76592,-8.1628 11.49117,-4.86627 7.71474,3.78155 13.45551,5.20771 21.0807,5.23702 5.29636,0.0204 6.83121,-0.24885 10.06788,-1.76576 10.21679,-4.78826 14.19852,-15.46783 9.41344,-25.24818 -2.9808,-6.09254 -6.64287,-8.61407 -23.26436,-16.01878 -17.10286,-7.61915 -21.49722,-11.14825 -26.33261,-21.14761 -2.4655,-5.09855 -2.5182,-5.3819 -2.5182,-13.53958 0,-7.52925 0.17385,-8.69999 1.80433,-12.1509 4.03908,-8.54868 11.30567,-14.96391 20.57678,-18.16598 4.0013,-1.38198 5.98521,-1.6139 13.37725,-1.56378 9.28866,0.063 15.75812,1.50463 24.3018,5.41544 6.37087,2.91621 6.32438,2.31056 0.74694,9.73115 -2.75573,3.6664 -5.22283,6.66475 -5.48244,6.66299 -0.25962,-0.002 -2.97164,-0.98345 -6.02672,-2.18154 -4.40264,-1.72655 -6.92954,-2.24776 -12.18349,-2.51303 -5.87718,-0.29673 -6.97938,-0.15847 -9.72072,1.21935 -7.3506,3.69446 -9.69145,6.83756 -9.68426,13.00325 0.006,5.40141 1.11144,8.0822 4.7254,11.46264 3.20817,3.00087 5.65726,4.32913 23.14122,12.55063 9.93485,4.67167 15.25218,8.22454 19.86842,13.27545 5.20925,5.69975 6.56829,9.78257 6.95229,20.88611 0.29138,8.42503 0.19595,9.31438 -1.42832,13.31173 -4.71659,11.60761 -13.60724,19.31709 -25.90323,22.46188 -5.75158,1.471 -17.88331,1.78443 -23.84027,0.61593 z"
     id="path25" />
  <path
     style="fill:#ffffff;stroke-width:0.694337"
     d="m 370.08165,683.15824 c -48.70188,-3.656 -84.65918,-11.03591 -124.6335,-25.57991 -26.43353,-9.6174 -46.79258,-19.48923 -75.33557,-36.5292 -15.60335,-9.31509 -39.51407,-26.45254 -44.30307,-31.75319 -1.24138,-1.37401 -1.19889,-1.39256 4.16602,-1.81899 2.98111,-0.23696 14.16884,-0.90727 24.86163,-1.48958 26.24756,-1.42939 53.33203,-3.26351 96.86002,-6.55921 57.84465,-4.37968 80.873,-6.04022 124.98067,-9.01217 22.72218,-1.53101 46.15606,-3.11458 52.07528,-3.51906 16.35695,-1.11771 83.92325,-6.60183 119.42598,-9.69339 95.54108,-8.31966 131.20383,-10.67043 133.10072,-8.77353 0.72181,0.72181 1.92883,21.95453 1.37378,24.16604 -0.27888,1.11114 -1.90687,2.72365 -4.44615,4.40389 -2.2034,1.45797 -10.41144,7.20219 -18.24009,12.76494 -39.66239,28.1826 -63.605,42.53368 -93.7355,56.18462 -45.1731,20.46615 -85.97684,31.39876 -134.10466,35.93089 -10.63286,1.00128 -53.86809,1.89173 -62.04556,1.27785 z m 80.59609,-39.90993 c 33.60005,-3.31943 67.57309,-15.48505 95.41836,-34.16895 9.80496,-6.57904 24.99613,-17.91154 24.99613,-18.64692 0,-0.72474 0.26495,-0.72771 -6.94337,0.0778 -21.66235,2.42081 -211.5564,16.01059 -241.07076,17.25225 -6.75768,0.28429 -12.51008,0.74028 -12.78312,1.01331 -1.10265,1.10266 2.62702,3.61398 13.57037,9.13745 30.39212,15.3399 52.27682,21.93544 83.01617,25.01917 11.3416,1.13777 33.83458,1.3 43.79622,0.31586 z"
     id="path26" />
  <path
     style="fill:#ffffff;stroke-width:3.00419"
     d="m 1374.418,837.70257 c -60.4276,-5.79077 -112.7519,-15.39798 -156.0935,-28.66013 -10.8084,-3.30731 -53.4489,-19.28575 -94.7566,-35.50764 -116.3997,-45.71124 -159.29534,-57.19614 -237.92566,-63.7024 -33.19927,-2.74707 -53.38786,-2.73877 -88.78233,0.0365 -74.92455,5.87478 -113.31224,15.40949 -225.34014,55.96979 C 434.90776,815.2998 373.21009,826.87034 262.12007,823.86233 174.86469,821.49969 117.78922,809.97854 39.805548,778.98631 L 1.5020962,763.76378 v -70.19694 c 0,-38.60831 0.6472238,-70.19693 1.4382751,-70.19693 0.7910513,0 10.6142857,6.69504 21.8294107,14.87787 66.679584,48.65104 161.085708,88.79441 244.105428,103.7985 37.20137,6.72337 125.63428,9.2882 164.20285,4.76239 42.28229,-4.96159 90.24666,-16.2974 149.36081,-35.29965 133.9409,-43.05531 171.22836,-50.28062 260.23708,-50.42695 52.7173,-0.0867 66.56104,0.90102 96.13416,6.85871 47.1523,9.49914 89.73289,23.57421 160.72429,53.12762 89.641,37.31716 121.1449,47.89671 174.8507,58.71793 38.982,7.8545 111.344,10.77928 149.1029,6.02654 83.9829,-10.57098 162.6907,-44.24978 237.0793,-101.44541 l 17.2741,-13.28164 v 58.36039 58.36038 l -27.8482,10.65923 c -56.0779,21.46441 -105.8842,32.81533 -167.4243,38.15621 -32.4832,2.81913 -84.5773,3.3396 -108.1509,1.08054 z"
     id="path28" />
  <path
     style="fill:#ffffff;stroke-width:1.65376"
     d="m 645.7921,667.01434 c 36.91265,-17.43623 75.61911,-31.37425 113.97489,-41.04185 59.92198,-15.10337 101.29151,-20.52022 156.41437,-20.48062 61.40525,0.0441 96.86214,5.21821 202.58524,29.56252 78.0212,17.96554 111.7584,21.85273 174.4713,20.10251 59.1125,-1.64972 96.7044,-8.12361 161.0131,-27.72887 54.572,-16.63691 79.3584,-21.79921 119.6781,-24.92551 18.3131,-1.41995 29.8058,-1.4163 46.3052,0.0147 19.4499,1.68693 52.5323,7.32335 56.1664,9.56936 1.6843,1.04099 1.7756,23.78342 0.095,23.78159 -0.6821,-7.4e-4 -6.8217,-1.26248 -13.6435,-2.80385 -9.6846,-2.18823 -20.7401,-2.80791 -50.4396,-2.82723 -43.6468,-0.0284 -58.5874,2.00596 -108.321,14.74928 -15.9174,4.07854 -38.9874,9.99469 -51.2665,13.14699 -43.0528,11.05253 -83.1292,15.72756 -135.0631,15.75551 -58.1363,0.0313 -92.1533,-3.41772 -196.2527,-19.89818 -116.7851,-18.48881 -138.48745,-20.54638 -216.07776,-20.48603 -90.93009,0.0707 -131.11285,5.43561 -235.31007,31.41676 -19.8178,4.94148 -36.56208,8.9279 -37.20953,8.8587 -0.64745,-0.0692 5.14844,-3.11381 12.87976,-6.76581 z"
     id="path29" />
</svg>
